<?xml version="1.0" encoding="UTF-8"?><svg xmlns="http://www.w3.org/2000/svg" viewBox="0 0 50 50"><path style="line-height:normal;text-indent:0;text-align:start;text-decoration-line:none;text-decoration-style:solid;text-decoration-color:#000;text-transform:none;block-progression:tb;isolation:auto;mix-blend-mode:normal" d="M25 2C12.31 2 2 12.31 2 25c0 12.691 10.31 23 23 23s23-10.31 23-23S37.69 2 25 2zm0 2c11.61 0 21 9.39 21 21s-9.39 21-21 21S4 36.61 4 25 13.39 4 25 4zm0 4C15.582 8 8 15.582 8 25c0 3.148.8 6.09 2.223 8.623l-.004.002.011.014C13.043 38.633 18.327 42 25 42c10.061 0 17-7.633 17-17 0-9.418-7.582-17-17-17zm0 2c3.513 0 6.717 1.188 9.26 3.174l-5.51 4.562.355.711s2.792 5.315-1.873 10.912c-2.178 2.614-6.058 3.133-9.539 2.893-3.48-.24-6.377-1.201-6.377-1.201l-.076.226C10.44 29.374 10 27.256 10 25c0-8.35 6.65-15 15-15zm10.77 4.521A14.864 14.864 0 0 1 39.455 21h-5.447l-.008.992s-.13 7.52-5.588 11.178c-2.19 1.467-5.613 1.574-8.83 1.123 3.295-.05 6.852-.852 9.186-3.652 4.436-5.325 3.03-10.608 2.408-12.317l4.594-3.803zM35.928 23h3.927c.086.655.145 1.32.145 2 0 2.367-.486 4.581-1.365 6.555l-2.97-1.98-.534.929S31.417 37 24 37c-2.556 0-4.663-.422-6.377-1.006 3.842.762 8.521 1.102 11.902-1.164 5.324-3.568 6.235-9.676 6.403-11.83zm.336 9.377l1.437.959C35.177 37.376 30.714 40 25 40c-3.1 0-5.821-.785-8.076-2.135C18.849 38.527 21.197 39 24 39c6.97 0 10.955-4.763 12.264-6.623z" font-weight="400" font-family="sans-serif" white-space="normal" overflow="visible"/><metadata><rdf:RDF xmlns:rdf="http://www.w3.org/1999/02/22-rdf-syntax-ns#" xmlns:rdfs="http://www.w3.org/2000/01/rdf-schema#" xmlns:dc="http://purl.org/dc/elements/1.1/"><rdf:Description about="https://iconscout.com/legal#licenses" dc:title="sitecore" dc:description="sitecore" dc:publisher="Iconscout" dc:date="2017-12-09" dc:format="image/svg+xml" dc:language="en"><dc:creator><rdf:Bag><rdf:li>Icons8</rdf:li></rdf:Bag></dc:creator></rdf:Description></rdf:RDF></metadata></svg>